<?xml version="1.0" standalone="no"?>
<!DOCTYPE svg PUBLIC "-//W3C//DTD SVG 20010904//EN"
 "http://www.w3.org/TR/2001/REC-SVG-20010904/DTD/svg10.dtd">
<svg version="1.0" xmlns="http://www.w3.org/2000/svg"
 width="366.000000pt" height="199.000000pt" viewBox="0 0 366.000000 199.000000"
 preserveAspectRatio="xMidYMid meet">

<g transform="translate(0.000000,199.000000) scale(0.100000,-0.100000)"
fill="#000000" stroke="none">
<path d="M1861 1763 c-19 -19 -45 -55 -58 -81 l-23 -46 27 -12 c16 -6 191
-145 390 -307 199 -163 371 -300 382 -306 29 -16 236 -14 249 2 6 7 8 17 4 23
-4 6 -78 68 -164 138 l-158 128 -2 206 -3 207 -105 0 -105 0 -3 -75 c-3 -99
-8 -120 -31 -120 -11 0 -96 63 -191 140 -94 77 -172 139 -173 139 -1 -1 -17
-17 -36 -36z"/>
<path d="M1700 1395 c0 -34 1 -35 40 -35 39 0 40 1 40 35 0 34 -1 35 -40 35
-39 0 -40 -1 -40 -35z"/>
<path d="M1820 1395 c0 -33 2 -35 35 -35 33 0 35 2 35 35 0 33 -2 35 -35 35
-33 0 -35 -2 -35 -35z"/>
<path d="M970 1208 c-136 -111 -210 -177 -208 -187 3 -13 24 -16 125 -19 l122
-3 108 88 c59 48 127 103 150 122 l43 35 -45 28 c-30 19 -47 37 -51 55 -9 45
-13 53 -23 53 -5 0 -104 -77 -221 -172z"/>
<path d="M1707 1313 c-4 -3 -7 -21 -7 -40 0 -32 1 -33 40 -33 l40 0 0 40 c0
39 -1 40 -33 40 -19 0 -37 -3 -40 -7z"/>
<path d="M1820 1280 c0 -39 1 -40 35 -40 34 0 35 1 35 40 0 39 -1 40 -35 40
-34 0 -35 -1 -35 -40z"/>
<path d="M695 906 c-43 -18 -93 -79 -101 -121 -17 -91 22 -187 89 -218 47 -23
124 -22 167 2 45 23 80 84 80 139 l0 42 -85 0 -85 0 0 -30 c0 -29 2 -30 45
-30 51 0 56 -10 20 -45 -35 -36 -86 -34 -118 5 -46 54 -44 133 4 176 28 25 91
24 119 -1 21 -19 21 -19 48 9 l27 27 -25 19 c-49 39 -130 50 -185 26z"/>
<path d="M1372 899 c-66 -33 -97 -87 -97 -169 0 -54 5 -73 25 -103 35 -50 86
-77 150 -77 105 0 170 62 178 169 6 89 -32 153 -111 186 -50 21 -94 19 -145
-6z m143 -83 c71 -71 14 -209 -80 -192 -48 9 -75 47 -75 107 0 67 35 109 91
109 29 0 47 -7 64 -24z"/>
<path d="M2230 905 c-75 -34 -111 -89 -111 -168 0 -120 63 -187 176 -187 64 0
102 16 139 60 95 113 22 295 -122 307 -29 2 -61 -3 -82 -12z m134 -96 c51 -61
23 -171 -47 -184 -87 -17 -146 80 -102 165 19 37 41 49 87 50 28 0 42 -7 62
-31z"/>
<path d="M2922 903 c-42 -20 -66 -65 -58 -108 7 -38 22 -52 94 -90 40 -22 52
-34 52 -51 0 -30 -41 -42 -84 -25 -57 23 -61 23 -79 -8 -18 -30 -18 -30 10
-48 20 -13 47 -18 106 -18 76 0 80 1 108 33 34 38 39 88 11 122 -9 12 -44 36
-77 53 -66 35 -80 61 -42 78 18 8 32 7 59 -4 l35 -15 16 33 16 33 -40 16 c-50
20 -85 20 -127 -1z"/>
<path d="M305 763 c-32 -81 -65 -163 -72 -180 l-13 -33 43 0 c40 0 44 2 56 35
l12 35 73 0 72 0 13 -35 c11 -32 16 -35 52 -35 21 0 39 4 39 8 0 4 -31 84 -68
177 l-68 170 -40 3 -40 3 -59 -148z m134 -55 c1 -14 -7 -18 -40 -18 -45 0 -45
0 -11 79 l15 36 18 -40 c9 -22 18 -48 18 -57z"/>
<path d="M970 730 l0 -180 40 0 39 0 3 72 3 72 55 -72 c55 -72 55 -72 103 -72
56 0 56 -1 -15 81 -26 31 -48 60 -48 63 0 3 14 19 32 35 27 24 31 35 31 76 0
41 -4 52 -31 77 -30 26 -38 28 -122 28 l-90 0 0 -180z m141 110 c12 -7 19 -21
19 -40 0 -31 -22 -50 -59 -50 -18 0 -21 6 -21 50 0 44 3 50 21 50 11 0 29 -5
40 -10z"/>
<path d="M1790 730 l0 -180 40 0 40 0 0 75 0 75 60 0 60 0 0 -75 0 -75 40 0
40 0 0 180 0 180 -40 0 -40 0 0 -70 0 -70 -60 0 -60 0 0 70 0 70 -40 0 -40 0
0 -180z"/>
<path d="M2512 773 c5 -151 15 -186 59 -209 16 -8 56 -14 90 -14 56 0 64 3 95
34 l34 34 0 146 0 146 -35 0 -35 0 0 -99 c0 -54 -3 -113 -6 -130 -14 -66 -92
-79 -113 -19 -6 17 -11 80 -11 139 l0 109 -41 0 -41 0 4 -137z"/>
<path d="M3140 730 l0 -180 105 0 105 0 0 35 0 35 -65 0 -65 0 0 40 0 40 60 0
60 0 0 35 0 35 -60 0 -60 0 0 35 0 35 65 0 65 0 0 35 0 35 -105 0 -105 0 0
-180z"/>
<path d="M760 286 c0 -39 18 -48 41 -20 15 18 2 47 -25 52 -12 3 -16 -4 -16
-32z m29 10 c9 -10 8 -16 -4 -26 -13 -11 -15 -8 -15 14 0 30 3 32 19 12z"/>
<path d="M870 285 c0 -30 3 -35 23 -34 16 1 18 2 5 6 -21 5 -23 19 -5 26 10 4
10 6 0 6 -19 1 -16 19 5 24 13 4 11 5 -5 6 -20 1 -23 -4 -23 -34z"/>
<path d="M972 288 c-2 -34 1 -38 21 -37 15 1 17 3 5 6 -10 2 -18 17 -21 36 -4
31 -4 31 -5 -5z"/>
<path d="M1150 305 c-23 -28 17 -72 42 -47 8 8 5 9 -9 6 -12 -4 -22 0 -26 9
-8 21 9 41 28 34 9 -4 14 -3 10 3 -9 15 -31 12 -45 -5z"/>
<path d="M1277 288 c-15 -35 -12 -53 3 -28 8 12 13 13 29 3 19 -12 19 -11 9
17 -15 43 -26 45 -41 8z"/>
<path d="M1396 308 c-11 -36 -13 -58 -5 -58 5 0 9 9 9 21 0 11 5 17 10 14 6
-3 10 1 10 9 0 20 -19 31 -24 14z"/>
<path d="M1431 289 c-7 -16 -11 -33 -7 -36 3 -3 10 5 15 18 l9 24 10 -25 c12
-27 15 -8 6 28 -8 30 -17 28 -33 -9z"/>
<path d="M1531 283 c1 -21 3 -30 6 -20 2 9 11 17 19 17 8 0 14 9 14 20 0 13
-7 20 -20 20 -17 0 -20 -6 -19 -37z m29 17 c0 -5 -4 -10 -10 -10 -5 0 -10 5
-10 10 0 6 5 10 10 10 6 0 10 -4 10 -10z"/>
<path d="M1641 301 c-15 -27 11 -60 36 -45 23 14 29 44 11 55 -21 14 -37 10
-47 -10z m46 -7 c8 -21 -13 -42 -28 -27 -13 13 -5 43 11 43 6 0 13 -7 17 -16z"/>
<path d="M1841 283 c1 -21 3 -30 6 -20 2 9 11 17 19 17 21 0 13 34 -9 38 -14
3 -17 -4 -16 -35z m29 17 c0 -5 -4 -10 -10 -10 -5 0 -10 5 -10 10 0 6 5 10 10
10 6 0 10 -4 10 -10z"/>
<path d="M1951 289 c-14 -41 -14 -44 4 -29 12 10 18 10 32 -1 15 -12 16 -12 9
6 -5 11 -11 28 -13 38 -8 26 -20 21 -32 -14z m24 1 c3 -5 1 -10 -4 -10 -6 0
-11 5 -11 10 0 6 2 10 4 10 3 0 8 -4 11 -10z"/>
<path d="M2060 283 c0 -25 3 -33 9 -24 6 9 11 10 15 2 4 -6 12 -11 17 -11 6 0
7 6 2 13 -4 6 -6 22 -4 35 2 17 -3 22 -18 22 -18 0 -21 -6 -21 -37z m30 17 c0
-5 -4 -10 -10 -10 -5 0 -10 5 -10 10 0 6 5 10 10 10 6 0 10 -4 10 -10z"/>
<path d="M2187 313 c-4 -6 -11 -22 -16 -36 -10 -25 -9 -26 10 -14 16 10 21 9
29 -3 9 -13 10 -13 9 0 0 23 -25 64 -32 53z"/>
<path d="M2358 313 c6 -2 13 -19 13 -36 2 -28 2 -29 6 -7 3 14 10 31 15 38 8
9 4 12 -18 11 -16 0 -23 -3 -16 -6z"/>
<path d="M2470 306 c-27 -33 18 -72 48 -42 13 13 14 20 6 34 -15 23 -38 26
-54 8z m45 -6 c4 -6 1 -17 -5 -26 -15 -18 -42 0 -33 22 6 16 29 19 38 4z"/>
<path d="M2590 286 c0 -22 5 -36 13 -36 42 1 51 62 10 68 -20 3 -23 -1 -23
-32z m35 -1 c0 -10 -6 -20 -12 -22 -8 -3 -13 5 -13 22 0 17 5 25 13 23 6 -3
12 -13 12 -23z"/>
<path d="M2711 301 c-15 -27 11 -60 36 -45 23 14 29 44 11 55 -21 14 -37 10
-47 -10z m46 -7 c8 -21 -13 -42 -28 -27 -13 13 -5 43 11 43 6 0 13 -7 17 -16z"/>
<path d="M2837 313 c-12 -12 -7 -22 13 -28 11 -3 20 -11 20 -16 0 -6 -9 -7
-21 -4 -15 5 -19 4 -15 -4 12 -19 46 -13 46 9 0 11 -7 20 -15 20 -8 0 -15 5
-15 11 0 6 7 8 16 5 8 -3 12 -2 9 4 -7 11 -28 13 -38 3z"/>
</g>
</svg>
